<mxfile host="app.diagrams.net" agent="Mozilla/5.0 (Macintosh; Intel Mac OS X 10.15; rv:130.0) Gecko/20100101 Firefox/130.0" version="24.7.7">
  <diagram name="Sida-1" id="GjP4y_RcwQgK-ZmHQ3f3">
    <mxGraphModel dx="1902" dy="1128" grid="1" gridSize="10" guides="1" tooltips="1" connect="1" arrows="1" fold="1" page="1" pageScale="1" pageWidth="827" pageHeight="1169" math="0" shadow="0">
      <root>
        <mxCell id="0" />
        <mxCell id="1" parent="0" />
        <mxCell id="7_WFTWpIlhKsjbPsXMvI-3" style="edgeStyle=orthogonalEdgeStyle;rounded=0;orthogonalLoop=1;jettySize=auto;html=1;entryX=0.5;entryY=1;entryDx=0;entryDy=0;" edge="1" parent="1" source="7_WFTWpIlhKsjbPsXMvI-1" target="7_WFTWpIlhKsjbPsXMvI-2">
          <mxGeometry relative="1" as="geometry" />
        </mxCell>
        <mxCell id="7_WFTWpIlhKsjbPsXMvI-6" style="edgeStyle=orthogonalEdgeStyle;rounded=0;orthogonalLoop=1;jettySize=auto;html=1;exitX=0.25;exitY=1;exitDx=0;exitDy=0;entryX=0.25;entryY=0;entryDx=0;entryDy=0;" edge="1" parent="1" source="7_WFTWpIlhKsjbPsXMvI-1" target="7_WFTWpIlhKsjbPsXMvI-5">
          <mxGeometry relative="1" as="geometry" />
        </mxCell>
        <mxCell id="7_WFTWpIlhKsjbPsXMvI-10" style="edgeStyle=orthogonalEdgeStyle;rounded=0;orthogonalLoop=1;jettySize=auto;html=1;exitX=0;exitY=0.5;exitDx=0;exitDy=0;entryX=0.5;entryY=1;entryDx=0;entryDy=0;" edge="1" parent="1" source="7_WFTWpIlhKsjbPsXMvI-1" target="7_WFTWpIlhKsjbPsXMvI-8">
          <mxGeometry relative="1" as="geometry" />
        </mxCell>
        <mxCell id="7_WFTWpIlhKsjbPsXMvI-1" value="&lt;div&gt;Client application&lt;/div&gt;&lt;div&gt;(Astro.js / Vercel)&lt;br&gt;&lt;/div&gt;" style="rounded=1;whiteSpace=wrap;html=1;" vertex="1" parent="1">
          <mxGeometry x="340" y="400" width="180" height="110" as="geometry" />
        </mxCell>
        <mxCell id="7_WFTWpIlhKsjbPsXMvI-4" style="edgeStyle=orthogonalEdgeStyle;rounded=0;orthogonalLoop=1;jettySize=auto;html=1;exitX=0.25;exitY=1;exitDx=0;exitDy=0;entryX=1;entryY=0.25;entryDx=0;entryDy=0;" edge="1" parent="1" source="7_WFTWpIlhKsjbPsXMvI-2" target="7_WFTWpIlhKsjbPsXMvI-1">
          <mxGeometry relative="1" as="geometry" />
        </mxCell>
        <mxCell id="7_WFTWpIlhKsjbPsXMvI-2" value="&lt;div&gt;AI service&lt;/div&gt;&lt;div&gt;(Azure)&lt;br&gt;&lt;/div&gt;" style="rounded=1;whiteSpace=wrap;html=1;" vertex="1" parent="1">
          <mxGeometry x="550" y="190" width="180" height="110" as="geometry" />
        </mxCell>
        <mxCell id="7_WFTWpIlhKsjbPsXMvI-7" style="edgeStyle=orthogonalEdgeStyle;rounded=0;orthogonalLoop=1;jettySize=auto;html=1;exitX=0.5;exitY=0;exitDx=0;exitDy=0;entryX=0.5;entryY=1;entryDx=0;entryDy=0;" edge="1" parent="1" source="7_WFTWpIlhKsjbPsXMvI-5" target="7_WFTWpIlhKsjbPsXMvI-1">
          <mxGeometry relative="1" as="geometry" />
        </mxCell>
        <mxCell id="7_WFTWpIlhKsjbPsXMvI-5" value="Optimizely SAAS" style="rounded=1;whiteSpace=wrap;html=1;" vertex="1" parent="1">
          <mxGeometry x="340" y="600" width="180" height="110" as="geometry" />
        </mxCell>
        <mxCell id="7_WFTWpIlhKsjbPsXMvI-9" style="edgeStyle=orthogonalEdgeStyle;rounded=0;orthogonalLoop=1;jettySize=auto;html=1;exitX=0.75;exitY=1;exitDx=0;exitDy=0;entryX=0;entryY=0.25;entryDx=0;entryDy=0;" edge="1" parent="1" source="7_WFTWpIlhKsjbPsXMvI-8" target="7_WFTWpIlhKsjbPsXMvI-1">
          <mxGeometry relative="1" as="geometry" />
        </mxCell>
        <mxCell id="7_WFTWpIlhKsjbPsXMvI-8" value="&lt;div&gt;Image stoage&lt;/div&gt;&lt;div&gt;(Vercel Blob)&lt;br&gt;&lt;/div&gt;" style="rounded=1;whiteSpace=wrap;html=1;" vertex="1" parent="1">
          <mxGeometry x="140" y="240" width="180" height="110" as="geometry" />
        </mxCell>
      </root>
    </mxGraphModel>
  </diagram>
</mxfile>
